HIERARCHY
ROOT Hips
{
	OFFSET 0.000000 0.000000 0.000000
	CHANNELS 6 Xposition Yposition Zposition Zrotation Yrotation Xrotation 
	JOINT LHipJoint
	{
		OFFSET 0.000000 0.000000 0.000000
		CHANNELS 3 Zrotation Yrotation Xrotation
		JOINT LeftUpLeg
		{
			OFFSET 1.363060 -1.794630 0.839290
			CHANNELS 3 Zrotation Yrotation Xrotation
			JOINT LeftLeg
			{
				OFFSET 2.448110 -6.726130 0.000000
				CHANNELS 3 Zrotation Yrotation Xrotation
				JOINT LeftFoot
				{
					OFFSET 2.562200 -7.039590 0.000000
					CHANNELS 3 Zrotation Yrotation Xrotation
					JOINT LeftToeBase
					{
						OFFSET 0.157640 -0.433110 2.322550
						CHANNELS 3 Zrotation Yrotation Xrotation
						End Site
						{
							OFFSET 0.000000 0.000000 0.000000
						}
					}
				}
			}
		}
	}
	JOINT RHipJoint
	{
		OFFSET 0.000000 0.000000 0.000000
		CHANNELS 3 Zrotation Yrotation Xrotation
		JOINT RightUpLeg
		{
			OFFSET -1.305520 -1.794630 0.839290
			CHANNELS 3 Zrotation Yrotation Xrotation
			JOINT RightLeg
			{
				OFFSET -2.542530 -6.985550 0.000000
				CHANNELS 3 Zrotation Yrotation Xrotation
				JOINT RightFoot
				{
					OFFSET -2.568260 -7.056230 0.000000
					CHANNELS 3 Zrotation Yrotation Xrotation
					JOINT RightToeBase
					{
						OFFSET -0.164730 -0.452590 2.363150
						CHANNELS 3 Zrotation Yrotation Xrotation
						End Site
						{
							OFFSET 0.000000 0.000000 0.000000
						}
					}
				}
			}
		}
	}
	JOINT LowerBack
	{
		OFFSET 0.000000 0.000000 0.000000
		CHANNELS 3 Zrotation Yrotation Xrotation
		JOINT Spine
		{
			OFFSET 0.028270 2.035590 -0.193380
			CHANNELS 3 Zrotation Yrotation Xrotation
			JOINT Spine1
			{
				OFFSET 0.056720 2.048850 -0.042750
				CHANNELS 3 Zrotation Yrotation Xrotation
				JOINT Neck
				{
					OFFSET 0.000000 0.000000 0.000000
					CHANNELS 3 Zrotation Yrotation Xrotation
					JOINT Neck1
					{
						OFFSET -0.054170 1.746240 0.172020
						CHANNELS 3 Zrotation Yrotation Xrotation
						JOINT Head
						{
							OFFSET 0.104070 1.761360 -0.123970
							CHANNELS 3 Zrotation Yrotation Xrotation
							End Site
							{
								OFFSET 0.000000 0.000000 0.000000
							}
						}
					}
				}
				JOINT LeftShoulder
				{
					OFFSET 0.000000 0.000000 0.000000
					CHANNELS 3 Zrotation Yrotation Xrotation
					JOINT LeftArm
					{
						OFFSET 3.362410 1.200890 -0.311210
						CHANNELS 3 Zrotation Yrotation Xrotation
						JOINT LeftForeArm
						{
							OFFSET 4.983000 -0.000000 -0.000000
							CHANNELS 3 Zrotation Yrotation Xrotation
							JOINT LeftHand
							{
								OFFSET 3.483560 -0.000000 -0.000000
								CHANNELS 3 Zrotation Yrotation Xrotation
								JOINT LeftFingerBase
								{
									OFFSET 0.000000 0.000000 0.000000
									CHANNELS 3 Zrotation Yrotation Xrotation
									JOINT LeftHandIndex1
									{
										OFFSET 0.715260 -0.000000 -0.000000
										CHANNELS 3 Zrotation Yrotation Xrotation
										End Site
										{
											OFFSET 0.000000 0.000000 0.000000
										}
									}
								}
								JOINT LThumb
								{
									OFFSET 0.000000 0.000000 0.000000
									CHANNELS 3 Zrotation Yrotation Xrotation
									End Site
									{
										OFFSET 0.000000 0.000000 0.000000
									}
								}
							}
						}
					}
				}
				JOINT RightShoulder
				{
					OFFSET 0.000000 0.000000 0.000000
					CHANNELS 3 Zrotation Yrotation Xrotation
					JOINT RightArm
					{
						OFFSET -3.136600 1.374050 -0.404650
						CHANNELS 3 Zrotation Yrotation Xrotation
						JOINT RightForeArm
						{
							OFFSET -5.241900 -0.000000 -0.000000
							CHANNELS 3 Zrotation Yrotation Xrotation
							JOINT RightHand
							{
								OFFSET -3.444170 -0.000000 -0.000000
								CHANNELS 3 Zrotation Yrotation Xrotation
								JOINT RightFingerBase
								{
									OFFSET 0.000000 0.000000 0.000000
									CHANNELS 3 Zrotation Yrotation Xrotation
									JOINT RightHandIndex1
									{
										OFFSET -0.622530 -0.000000 -0.000000
										CHANNELS 3 Zrotation Yrotation Xrotation
										End Site
										{
											OFFSET 0.000000 0.000000 0.000000
										}
									}
								}
								JOINT RThumb
								{
									OFFSET 0.000000 0.000000 0.000000
									CHANNELS 3 Zrotation Yrotation Xrotation
									End Site
									{
										OFFSET 0.000000 0.000000 0.000000
									}
								}
							}
						}
					}
				}
			}
		}
	}
}
MOTION
Frames: 11
Frame Time: 0.008333
-0.614167 17.513226 -7.260433 -7.006902 0.630481 4.632828 -1.499092 -1.364656 -0.227637 -4.540094 -13.623069 -32.440935 1.447411 8.132257 22.798455 -0.236493 3.418042 -6.249051 0.095200 -1.990100 -5.478400 0.454365 1.679795 -1.222371 31.962213 -1.067633 14.732469 -0.918101 -4.840724 10.670419 -0.055828 -5.058201 -13.090955 -0.254200 -3.244200 8.959400 4.263731 3.146922 6.137670 1.138670 4.129830 -0.428974 4.640575 2.232637 -4.112601 -12.245173 -4.678580 -14.321397 4.020124 -4.874636 22.866176 4.363000 -3.485000 12.972700 -0.975541 2.712950 -0.380504 -91.532661 8.874942 20.057708 18.734077 -29.798445 -4.300113 0.723717 1.129442 7.711859 -0.855151 32.323787 -0.737600 -7.125000 0.000000 0.000000 -36.008700 57.210200 -11.798600 0.218992 -3.534190 -1.557493 80.869496 3.365934 11.833433 -21.039893 31.150990 -6.153776 0.138797 0.813010 -17.491501 -13.654953 18.964529 -4.459700 7.125000 0.000000 0.000000 9.185900 -11.462400 7.273700
-0.604502 17.505466 -7.172544 -6.967264 0.680176 4.608351 -1.494736 -1.364396 -0.220810 -4.753164 -13.492740 -32.423104 1.496817 8.239082 23.122285 -0.228819 3.365513 -6.197984 0.084182 -1.867402 -5.139573 0.457254 1.685271 -1.226954 31.879175 -1.161027 14.931410 -0.924843 -4.907872 10.847357 -0.052528 -5.044049 -12.986345 -0.250366 -3.219544 8.890625 4.238519 3.142562 6.138580 1.132176 4.124145 -0.437450 4.642530 2.229576 -4.130248 -12.294635 -4.698395 -14.306292 4.060242 -4.898840 22.898719 4.384938 -3.497813 12.990561 -0.973547 2.715487 -0.381091 -91.554809 8.838541 19.987413 18.586674 -29.595806 -4.227786 0.727042 1.128142 7.842871 -0.837200 32.279724 -0.727796 -7.125000 0.000000 0.000000 -35.952641 57.177730 -11.747589 0.215083 -3.535064 -1.557722 80.891371 3.265637 11.761991 -21.091346 31.219374 -6.185082 0.139979 0.812340 -17.449417 -13.584488 19.062428 -4.459700 7.125000 0.000000 0.000000 9.233708 -11.369794 7.330487
-0.594837 17.497705 -7.084656 -6.927626 0.729871 4.583874 -1.490380 -1.364136 -0.213983 -4.966234 -13.362412 -32.405273 1.546224 8.345907 23.446115 -0.221145 3.312985 -6.146918 0.073165 -1.744704 -4.800746 0.460143 1.690748 -1.231537 31.796138 -1.254420 15.130352 -0.931585 -4.975020 11.024295 -0.049227 -5.029898 -12.881735 -0.246531 -3.194888 8.821850 4.213307 3.138201 6.139490 1.125683 4.118459 -0.445926 4.644484 2.226515 -4.147894 -12.344096 -4.718209 -14.291187 4.100359 -4.923044 22.931261 4.406876 -3.510627 13.008422 -0.971552 2.718025 -0.381679 -91.576957 8.802141 19.917119 18.439270 -29.393166 -4.155460 0.730366 1.126841 7.973882 -0.819249 32.235662 -0.717992 -7.125000 0.000000 0.000000 -35.896583 57.145259 -11.696578 0.211174 -3.535938 -1.557951 80.913246 3.165340 11.690548 -21.142799 31.287758 -6.216388 0.141161 0.811669 -17.407334 -13.514023 19.160327 -4.459700 7.125000 0.000000 0.000000 9.281515 -11.277188 7.387273
-0.584859 17.488558 -6.997840 -6.971227 0.720705 4.543081 -1.486949 -1.363078 -0.208138 -5.053648 -13.250778 -32.320591 1.592111 8.438811 23.731372 -0.201695 3.182425 -6.066747 0.063470 -1.620456 -4.457952 0.462551 1.693422 -1.235244 31.801120 -1.330552 15.319435 -0.944015 -5.075736 11.297781 -0.042805 -5.040361 -12.758319 -0.212825 -2.958754 8.164749 4.275949 3.158885 6.196947 1.129850 4.156214 -0.446043 4.611510 2.242772 -4.179557 -12.375088 -4.738634 -14.321243 4.123915 -4.946564 22.974451 4.418644 -3.522756 13.040786 -0.970198 2.717925 -0.383068 -91.598952 8.741357 19.838987 18.324020 -29.230212 -4.094541 0.734129 1.132419 8.177495 -0.904857 32.404733 -0.765196 -7.125000 0.000000 0.000000 -36.120914 57.257545 -11.886188 0.209521 -3.538498 -1.559143 80.933951 3.074997 11.610685 -21.170971 31.326113 -6.232876 0.143136 0.810173 -17.417156 -13.442979 19.292045 -4.467499 7.125000 0.000000 0.000000 9.329596 -11.149237 7.451585
-0.574861 17.479322 -6.911093 -7.020175 0.707758 4.501241 -1.483578 -1.361970 -0.202356 -5.132991 -13.140345 -32.231615 1.637772 8.530820 24.014151 -0.181489 3.046854 -5.984708 0.053860 -1.496108 -4.114903 0.464929 1.695916 -1.238893 31.811755 -1.405575 15.507885 -0.956810 -5.178607 11.577468 -0.036182 -5.052405 -12.633696 -0.177200 -2.709038 7.469865 4.344233 3.181177 6.258036 1.134701 4.196759 -0.445623 4.576292 2.260269 -4.212120 -12.404894 -4.759098 -14.354200 4.146406 -4.970039 23.018324 4.429759 -3.534841 13.074082 -0.968885 2.717656 -0.384508 -91.620936 8.679007 19.760351 18.210834 -29.069805 -4.034355 0.737920 1.138439 8.385769 -0.997115 32.587492 -0.816061 -7.125000 0.000000 0.000000 -36.363252 57.379126 -12.091251 0.208012 -3.541166 -1.560396 80.954581 2.985292 11.530281 -21.197647 31.362540 -6.248413 0.145162 0.808624 -17.430311 -13.371898 19.425934 -4.475798 7.125000 0.000000 0.000000 9.377695 -11.019016 7.516380
-0.563188 17.470797 -6.820077 -7.054608 0.650842 4.427838 -1.481035 -1.362291 -0.197548 -5.211586 -13.075807 -32.032894 1.679634 8.610108 24.260462 -0.146398 2.814528 -5.892705 0.051633 -1.465821 -4.031420 0.468228 1.699254 -1.244711 31.787909 -1.502338 15.701073 -0.977151 -5.321159 11.968003 -0.030272 -5.042100 -12.468064 -0.132740 -2.308243 6.360025 4.402970 3.215554 6.283343 1.137396 4.247528 -0.416388 4.544563 2.281392 -4.171916 -12.417502 -4.770671 -14.411963 4.167446 -4.982154 23.042213 4.438270 -3.538605 13.100164 -0.968872 2.719029 -0.384254 -91.643352 8.641030 19.669341 18.152655 -28.986225 -4.000332 0.738386 1.146967 8.577314 -1.193506 32.814443 -0.922066 -7.125000 0.000000 0.000000 -36.742074 57.511591 -12.365153 0.209937 -3.545027 -1.559775 80.986011 2.953429 11.407436 -21.199076 31.365744 -6.247385 0.145112 0.809541 -17.405098 -13.423555 19.420974 -4.491737 7.125000 0.000000 0.000000 9.343980 -11.020072 7.488393
-0.551286 17.462370 -6.728474 -7.087049 0.587890 4.350104 -1.478605 -1.362808 -0.192874 -5.290078 -13.017567 -31.819109 1.720975 8.687649 24.501767 -0.109265 2.568921 -5.799334 0.050420 -1.448446 -3.983564 0.471653 1.702709 -1.250825 31.759330 -1.602086 15.894911 -0.998527 -5.469157 12.373753 -0.024459 -5.028726 -12.296803 -0.087068 -1.886712 5.193230 4.460397 3.251589 6.303738 1.139795 4.299701 -0.383198 4.513313 2.303013 -4.121725 -12.427750 -4.781023 -14.473130 4.188286 -4.992711 23.063360 4.446424 -3.541226 13.125257 -0.969038 2.720628 -0.383767 -91.665828 8.606399 19.576632 18.102026 -28.913190 -3.969899 0.738397 1.155841 8.766562 -1.404190 33.047460 -1.035639 -7.125000 0.000000 0.000000 -37.139629 57.645549 -12.648504 0.212333 -3.549052 -1.558897 81.018923 2.929504 11.278766 -21.197039 31.364389 -6.244085 0.144777 0.810797 -17.374618 -13.492058 19.396957 -4.508725 7.125000 0.000000 0.000000 9.299036 -11.039147 7.447672
-0.539695 17.455502 -6.632700 -7.035354 0.521099 4.286935 -1.475018 -1.363675 -0.186995 -5.442858 -13.016935 -31.544985 1.762610 8.760314 24.729890 -0.062087 2.240086 -5.620260 0.048650 -1.422921 -3.913289 0.474607 1.707496 -1.258715 31.671806 -1.612756 16.079778 -1.025238 -5.633023 12.826448 -0.014247 -5.062047 -12.112260 -0.062543 -1.590032 4.374437 4.406871 3.281357 6.236233 1.133515 4.328673 -0.351882 4.537235 2.315912 -4.032263 -12.434495 -4.786860 -14.438267 4.198771 -5.003787 23.041450 4.450444 -3.544761 13.106984 -0.967822 2.726341 -0.381010 -91.682156 8.612847 19.474902 18.027848 -28.811203 -3.934498 0.738256 1.155778 8.889545 -1.484024 33.013089 -1.074842 -7.125000 0.000000 0.000000 -37.178370 57.600359 -12.621733 0.213188 -3.552338 -1.556127 81.048728 2.863833 11.201330 -21.204596 31.374296 -6.247191 0.143266 0.813900 -17.389299 -13.582364 19.314522 -4.518677 7.125000 0.000000 0.000000 9.238471 -11.116970 7.383022
-0.528173 17.448979 -6.536003 -6.965060 0.453460 4.226987 -1.471176 -1.364618 -0.180849 -5.612058 -13.029038 -31.257522 1.804310 8.831900 24.955099 -0.012689 1.892852 -5.422240 0.046757 -1.395596 -3.838059 0.477457 1.712578 -1.266997 31.571252 -1.603735 16.262663 -1.053128 -5.800396 13.289519 -0.003062 -5.105690 -11.924782 -0.042692 -1.320951 3.632571 4.328819 3.309738 6.149297 1.125318 4.352517 -0.320979 4.573353 2.326884 -3.934119 -12.440467 -4.791699 -14.382176 4.206967 -5.014978 23.010023 4.453550 -3.548498 13.079125 -0.966300 2.732964 -0.377751 -91.697124 8.628377 19.371178 17.948464 -28.702815 -3.897999 0.738081 1.153741 8.997881 -1.534934 32.919611 -1.097605 -7.125000 0.000000 0.000000 -37.137794 57.515567 -12.526409 0.213702 -3.555461 -1.552939 81.077847 2.788933 11.135219 -21.214273 31.386693 -6.251713 0.141494 0.817412 -17.413963 -13.677488 19.219174 -4.527073 7.125000 0.000000 0.000000 9.174453 -11.207780 7.313082
-0.516398 17.443179 -6.438981 -6.904677 0.317626 4.184224 -1.465797 -1.363430 -0.172757 -5.780733 -12.963066 -30.970873 1.847944 8.901423 25.178451 0.036255 1.516190 -5.086379 0.039157 -1.267199 -3.484506 0.478676 1.716807 -1.274438 31.489393 -1.485795 16.442929 -1.085848 -5.971044 13.766803 0.008146 -5.150680 -11.727637 -0.034108 -1.188730 3.268332 4.247138 3.350043 6.083612 1.119225 4.396651 -0.322699 4.614972 2.349860 -3.911340 -12.446098 -4.789024 -14.233760 4.198805 -5.021916 22.975446 4.452569 -3.554555 13.028510 -0.962903 2.739200 -0.374948 -91.715619 8.699635 19.206278 17.824220 -28.529917 -3.844461 0.739956 1.143258 9.124582 -1.445095 32.613134 -1.042605 -7.125000 0.000000 0.000000 -36.783769 57.294836 -12.183728 0.210342 -3.558325 -1.551427 81.103298 2.600920 11.135076 -21.259310 31.441985 -6.278985 0.138470 0.822074 -17.470835 -13.747961 19.094411 -4.519416 7.125000 0.000000 0.000000 9.126083 -11.331949 7.249954
-0.504543 17.437609 -6.341855 -6.847447 0.160093 4.146930 -1.459930 -1.361564 -0.164046 -5.949239 -12.872252 -30.684483 1.892193 8.970289 25.401213 0.085053 1.130165 -4.706660 0.029741 -1.106644 -3.042395 0.479376 1.720764 -1.281611 31.413484 -1.333199 16.622360 -1.120104 -6.142734 14.248609 0.019361 -5.196100 -11.527416 -0.029108 -1.100055 3.024246 4.164302 3.394141 6.024689 1.113802 4.447242 -0.334799 4.658342 2.376655 -3.912542 -12.451621 -4.783958 -14.055967 4.185438 -5.027500 22.939868 4.450288 -3.561350 12.970656 -0.958908 2.745312 -0.372292 -91.735236 8.788623 19.021912 17.685702 -28.336493 -3.785502 0.742483 1.130087 9.257126 -1.310471 32.238885 -0.962861 -7.125000 0.000000 0.000000 -36.330010 57.030851 -11.762342 0.205750 -3.561107 -1.550447 81.127581 2.376917 11.155924 -21.315599 31.510927 -6.313495 0.135048 0.827101 -17.537956 -13.810591 18.960290 -4.506651 7.125000 0.000000 0.000000 9.082692 -11.466733 7.188993
